<svg width="155" height="16" viewBox="0 0 155 16" fill="none" xmlns="http://www.w3.org/2000/svg">
<path d="M5.12 1.28C6.048 1.28 6.848 1.472 7.52 1.856C8.192 2.22933 8.752 2.784 9.2 3.52L8.128 4.352C7.73333 3.66933 7.28533 3.18933 6.784 2.912C6.29333 2.624 5.696 2.48 4.992 2.48C4.13867 2.48 3.51467 2.65067 3.12 2.992C2.72533 3.33333 2.528 3.74933 2.528 4.24C2.528 4.61333 2.64533 4.944 2.88 5.232C3.11467 5.50933 3.584 5.728 4.288 5.888L6.576 6.4C7.58933 6.624 8.29333 6.96533 8.688 7.424C9.09333 7.872 9.296 8.432 9.296 9.104C9.296 9.70133 9.12533 10.2347 8.784 10.704C8.45333 11.1627 7.984 11.52 7.376 11.776C6.768 12.032 6.05333 12.16 5.232 12.16C4.09067 12.16 3.14667 11.936 2.4 11.488C1.65333 11.0293 1.08267 10.4747 0.688 9.824L1.808 8.912C2.11733 9.52 2.55467 10.016 3.12 10.4C3.696 10.7733 4.42667 10.96 5.312 10.96C6.13333 10.96 6.77867 10.8107 7.248 10.512C7.728 10.2133 7.968 9.78133 7.968 9.216C7.968 8.87467 7.856 8.57067 7.632 8.304C7.408 8.02667 6.98667 7.81867 6.368 7.68L3.888 7.12C2.90667 6.90667 2.208 6.56 1.792 6.08C1.38667 5.6 1.184 5.04533 1.184 4.416C1.184 3.85067 1.33867 3.33333 1.648 2.864C1.968 2.384 2.42133 2 3.008 1.712C3.60533 1.424 4.30933 1.28 5.12 1.28ZM21.77 4H23.194L20.41 12H19.13L16.874 5.632L14.746 12H13.466L10.682 4H12.106L14.122 10.512L16.298 4H17.578L19.754 10.512L21.77 4ZM25.753 2.464C25.465 2.464 25.2303 2.37867 25.049 2.208C24.8783 2.02667 24.793 1.792 24.793 1.504C24.793 1.216 24.8783 0.986666 25.049 0.815999C25.2303 0.634666 25.465 0.544 25.753 0.544C26.041 0.544 26.2703 0.634666 26.441 0.815999C26.6223 0.986666 26.713 1.216 26.713 1.504C26.713 1.792 26.6223 2.02667 26.441 2.208C26.2703 2.37867 26.041 2.464 25.753 2.464ZM26.393 4V12H25.113V4H26.393ZM34.163 4V5.104H31.251V9.792C31.251 10.1867 31.363 10.48 31.587 10.672C31.811 10.864 32.099 10.96 32.451 10.96C32.7603 10.96 33.027 10.9067 33.251 10.8C33.475 10.6933 33.6777 10.5493 33.859 10.368L34.307 11.44C34.0617 11.664 33.7683 11.84 33.427 11.968C33.0963 12.096 32.7123 12.16 32.275 12.16C31.8697 12.16 31.491 12.0907 31.139 11.952C30.787 11.8027 30.5043 11.5733 30.291 11.264C30.0883 10.944 29.9817 10.528 29.971 10.016V5.104H28.371V4H29.971V2.08L31.251 1.728V4H34.163ZM39.3781 3.84C40.1995 3.84 40.8821 4.032 41.4261 4.416C41.9701 4.78933 42.3915 5.30667 42.6901 5.968L41.4741 6.544C41.3035 6.032 41.0421 5.64267 40.6901 5.376C40.3488 5.09867 39.9008 4.96 39.3461 4.96C38.5461 4.96 37.9168 5.232 37.4581 5.776C37.0101 6.30933 36.7861 7.05067 36.7861 8C36.7861 8.94933 37.0101 9.696 37.4581 10.24C37.9168 10.7733 38.5461 11.04 39.3461 11.04C39.9755 11.04 40.4768 10.896 40.8501 10.608C41.2235 10.32 41.4688 9.91467 41.5861 9.392L42.7701 9.808C42.5035 10.544 42.0821 11.12 41.5061 11.536C40.9408 11.952 40.2315 12.16 39.3781 12.16C38.6315 12.16 37.9648 11.9947 37.3781 11.664C36.7915 11.3333 36.3328 10.8587 36.0021 10.24C35.6715 9.61067 35.5061 8.864 35.5061 8C35.5061 7.136 35.6715 6.39467 36.0021 5.776C36.3328 5.14667 36.7915 4.66667 37.3781 4.336C37.9648 4.00533 38.6315 3.84 39.3781 3.84ZM45.0193 12V0.32H46.2993V5.2C46.5766 4.72 46.9446 4.37333 47.4033 4.16C47.8619 3.94667 48.3633 3.84 48.9073 3.84C49.4833 3.84 50.0059 3.952 50.4753 4.176C50.9446 4.38933 51.3179 4.72 51.5953 5.168C51.8833 5.616 52.0273 6.18667 52.0273 6.88V12H50.7473V7.328C50.7473 6.44267 50.5553 5.82933 50.1713 5.488C49.7979 5.136 49.3339 4.96 48.7793 4.96C48.3953 4.96 48.0113 5.05067 47.6273 5.232C47.2433 5.41333 46.9233 5.712 46.6673 6.128C46.4219 6.53333 46.2993 7.07733 46.2993 7.76V12H45.0193ZM64.8746 1.28C65.8773 1.28 66.7413 1.504 67.4666 1.952C68.2026 2.38933 68.768 3.01333 69.1626 3.824C69.568 4.63467 69.7706 5.6 69.7706 6.72C69.7706 7.84 69.568 8.80533 69.1626 9.616C68.768 10.4267 68.2026 11.056 67.4666 11.504C66.7413 11.9413 65.8773 12.16 64.8746 12.16C63.872 12.16 63.0026 11.9413 62.2666 11.504C61.5413 11.056 60.976 10.4267 60.5706 9.616C60.176 8.80533 59.9786 7.84 59.9786 6.72C59.9786 5.6 60.176 4.63467 60.5706 3.824C60.976 3.01333 61.5413 2.38933 62.2666 1.952C63.0026 1.504 63.872 1.28 64.8746 1.28ZM64.8746 2.48C63.776 2.48 62.9066 2.85333 62.2666 3.6C61.6373 4.34667 61.3226 5.38667 61.3226 6.72C61.3226 8.04267 61.6373 9.08267 62.2666 9.84C62.9066 10.5867 63.776 10.96 64.8746 10.96C65.9733 10.96 66.8373 10.5867 67.4666 9.84C68.1066 9.08267 68.4266 8.04267 68.4266 6.72C68.4266 5.38667 68.1066 4.34667 67.4666 3.6C66.8373 2.85333 65.9733 2.48 64.8746 2.48ZM72.2693 12V4H73.3093L73.4853 5.312C73.9333 4.33067 74.7866 3.84 76.0453 3.84C76.1839 3.84 76.3333 3.85067 76.4933 3.872C76.6639 3.89333 76.8079 3.936 76.9253 4L76.7013 5.168C76.5839 5.12533 76.4559 5.09333 76.3173 5.072C76.1786 5.05067 75.9813 5.04 75.7253 5.04C75.3946 5.04 75.0586 5.136 74.7173 5.328C74.3866 5.52 74.1093 5.81333 73.8853 6.208C73.6613 6.592 73.5493 7.08267 73.5493 7.68V12H72.2693ZM82.6983 10.976C83.4556 10.976 84.0476 11.152 84.4743 11.504C84.9009 11.8453 85.1143 12.304 85.1143 12.88C85.1143 13.4027 84.9383 13.856 84.5863 14.24C84.2449 14.624 83.7809 14.9173 83.1943 15.12C82.6183 15.3333 81.9676 15.44 81.2423 15.44C79.9836 15.44 79.0396 15.2267 78.4103 14.8C77.7916 14.3733 77.4823 13.8613 77.4823 13.264C77.4823 12.9013 77.5836 12.5707 77.7863 12.272C77.9889 11.9733 78.3249 11.76 78.7943 11.632C78.5383 11.5147 78.3303 11.3547 78.1703 11.152C78.0103 10.9387 77.9303 10.656 77.9303 10.304C77.9303 9.97333 78.0263 9.67467 78.2183 9.408C78.4103 9.13067 78.6983 8.91733 79.0823 8.768C78.6769 8.53333 78.3676 8.224 78.1543 7.84C77.9409 7.456 77.8343 7.024 77.8343 6.544C77.8343 6.01067 77.9729 5.54133 78.2503 5.136C78.5383 4.73067 78.9276 4.416 79.4183 4.192C79.9089 3.95733 80.4743 3.84 81.1143 3.84C81.7863 3.84 82.3889 3.97333 82.9223 4.24C82.9969 3.70667 83.2316 3.29067 83.6263 2.992C84.0316 2.68267 84.5063 2.528 85.0503 2.528H85.1302L85.4183 3.664H85.3063C84.8156 3.664 84.4316 3.75467 84.1543 3.936C83.8769 4.11733 83.7223 4.4 83.6903 4.784C84.1596 5.27467 84.3943 5.86133 84.3943 6.544C84.3943 7.06667 84.2556 7.536 83.9783 7.952C83.7009 8.35733 83.3116 8.67733 82.8103 8.912C82.3196 9.136 81.7543 9.248 81.1143 9.248C80.7196 9.248 80.3516 9.21067 80.0103 9.136C79.6903 9.232 79.4609 9.36533 79.3223 9.536C79.1836 9.70667 79.1143 9.89333 79.1143 10.096C79.1143 10.6827 79.5303 10.976 80.3623 10.976H82.6983ZM81.1143 4.88C80.5596 4.88 80.0956 5.03467 79.7223 5.344C79.3489 5.64267 79.1623 6.04267 79.1623 6.544C79.1623 7.03467 79.3489 7.43467 79.7223 7.744C80.0956 8.05333 80.5596 8.208 81.1143 8.208C81.6689 8.208 82.1329 8.05333 82.5063 7.744C82.8796 7.43467 83.0663 7.03467 83.0663 6.544C83.0663 6.04267 82.8796 5.64267 82.5063 5.344C82.1329 5.03467 81.6689 4.88 81.1143 4.88ZM81.2263 14.368C82.1543 14.368 82.8369 14.2293 83.2743 13.952C83.7116 13.6853 83.9303 13.376 83.9303 13.024C83.9303 12.736 83.8129 12.5067 83.5783 12.336C83.3543 12.1653 82.9436 12.08 82.3463 12.08H79.8823C79.5409 12.08 79.2529 12.1653 79.0182 12.336C78.7836 12.5173 78.6663 12.7627 78.6663 13.072C78.6663 13.4667 78.8903 13.7813 79.3383 14.016C79.7969 14.2507 80.4263 14.368 81.2263 14.368ZM91.5819 6.832C91.5819 6.23467 91.4219 5.776 91.1019 5.456C90.7819 5.12533 90.3285 4.96 89.7419 4.96C89.1872 4.96 88.7179 5.08267 88.3339 5.328C87.9499 5.56267 87.6672 5.94667 87.4859 6.48L86.4459 5.84C86.6592 5.24267 87.0539 4.76267 87.6299 4.4C88.2059 4.02667 88.9205 3.84 89.7739 3.84C90.3499 3.84 90.8725 3.94133 91.3419 4.144C91.8112 4.336 92.1792 4.63467 92.4459 5.04C92.7232 5.43467 92.8619 5.94667 92.8619 6.576V10.448C92.8619 10.832 93.0645 11.024 93.4699 11.024C93.6725 11.024 93.8699 10.9973 94.0619 10.944L93.9979 11.952C93.7845 12.0587 93.5072 12.112 93.1659 12.112C92.7712 12.112 92.4299 12.016 92.1419 11.824C91.8645 11.632 91.6832 11.3387 91.5979 10.944C91.3205 11.36 90.9419 11.6693 90.4619 11.872C89.9819 12.064 89.5072 12.16 89.0379 12.16C88.5685 12.16 88.1312 12.08 87.7259 11.92C87.3205 11.76 86.9952 11.52 86.7499 11.2C86.5152 10.8693 86.3979 10.464 86.3979 9.984C86.3979 9.38667 86.5952 8.896 86.9899 8.512C87.3952 8.11733 87.9552 7.85067 88.6699 7.712L91.5819 7.136V6.832ZM87.7099 9.92C87.7099 10.2507 87.8379 10.5227 88.0939 10.736C88.3605 10.9387 88.7339 11.04 89.2139 11.04C89.6299 11.04 90.0139 10.9707 90.3659 10.832C90.7285 10.6827 91.0219 10.464 91.2459 10.176C91.4699 9.87733 91.5819 9.49867 91.5819 9.04V8.192L89.2619 8.672C88.7392 8.77867 88.3499 8.928 88.0939 9.12C87.8379 9.312 87.7099 9.57867 87.7099 9.92ZM95.9724 12V4H97.0924L97.1724 5.248C97.4497 4.74667 97.8284 4.38933 98.3084 4.176C98.7884 3.952 99.3057 3.84 99.8604 3.84C100.436 3.84 100.959 3.952 101.428 4.176C101.898 4.38933 102.271 4.72 102.548 5.168C102.836 5.616 102.98 6.18667 102.98 6.88V12H101.7V7.328C101.7 6.44267 101.508 5.82933 101.124 5.488C100.751 5.136 100.287 4.96 99.7324 4.96C99.3484 4.96 98.9644 5.05067 98.5804 5.232C98.1964 5.41333 97.8764 5.70667 97.6204 6.112C97.375 6.51733 97.2524 7.06133 97.2524 7.744V12H95.9724ZM106.519 2.464C106.231 2.464 105.996 2.37867 105.815 2.208C105.644 2.02667 105.559 1.792 105.559 1.504C105.559 1.216 105.644 0.986666 105.815 0.815999C105.996 0.634666 106.231 0.544 106.519 0.544C106.807 0.544 107.036 0.634666 107.207 0.815999C107.388 0.986666 107.479 1.216 107.479 1.504C107.479 1.792 107.388 2.02667 107.207 2.208C107.036 2.37867 106.807 2.464 106.519 2.464ZM107.159 4V12H105.879V4H107.159ZM109.553 12V11.024L113.745 6.112L114.753 5.072L113.329 5.104H109.601V4H116.177V4.976L111.985 9.888L110.993 10.928L112.545 10.896H116.305V12H109.553ZM123.348 6.832C123.348 6.23467 123.188 5.776 122.868 5.456C122.548 5.12533 122.094 4.96 121.508 4.96C120.953 4.96 120.484 5.08267 120.1 5.328C119.716 5.56267 119.433 5.94667 119.252 6.48L118.212 5.84C118.425 5.24267 118.82 4.76267 119.396 4.4C119.972 4.02667 120.686 3.84 121.54 3.84C122.116 3.84 122.638 3.94133 123.108 4.144C123.577 4.336 123.945 4.63467 124.212 5.04C124.489 5.43467 124.628 5.94667 124.628 6.576V10.448C124.628 10.832 124.83 11.024 125.236 11.024C125.438 11.024 125.636 10.9973 125.828 10.944L125.764 11.952C125.55 12.0587 125.273 12.112 124.932 12.112C124.537 12.112 124.196 12.016 123.908 11.824C123.63 11.632 123.449 11.3387 123.364 10.944C123.086 11.36 122.708 11.6693 122.228 11.872C121.748 12.064 121.273 12.16 120.804 12.16C120.334 12.16 119.897 12.08 119.492 11.92C119.086 11.76 118.761 11.52 118.516 11.2C118.281 10.8693 118.164 10.464 118.164 9.984C118.164 9.38667 118.361 8.896 118.756 8.512C119.161 8.11733 119.721 7.85067 120.436 7.712L123.348 7.136V6.832ZM119.476 9.92C119.476 10.2507 119.604 10.5227 119.86 10.736C120.126 10.9387 120.5 11.04 120.98 11.04C121.396 11.04 121.78 10.9707 122.132 10.832C122.494 10.6827 122.788 10.464 123.012 10.176C123.236 9.87733 123.348 9.49867 123.348 9.04V8.192L121.028 8.672C120.505 8.77867 120.116 8.928 119.86 9.12C119.604 9.312 119.476 9.57867 119.476 9.92ZM132.226 4V5.104H129.314V9.792C129.314 10.1867 129.426 10.48 129.65 10.672C129.874 10.864 130.162 10.96 130.514 10.96C130.823 10.96 131.09 10.9067 131.314 10.8C131.538 10.6933 131.74 10.5493 131.922 10.368L132.37 11.44C132.124 11.664 131.831 11.84 131.49 11.968C131.159 12.096 130.775 12.16 130.338 12.16C129.932 12.16 129.554 12.0907 129.202 11.952C128.85 11.8027 128.567 11.5733 128.354 11.264C128.151 10.944 128.044 10.528 128.034 10.016V5.104H126.434V4H128.034V2.08L129.314 1.728V4H132.226ZM134.769 2.464C134.481 2.464 134.246 2.37867 134.065 2.208C133.894 2.02667 133.809 1.792 133.809 1.504C133.809 1.216 133.894 0.986666 134.065 0.815999C134.246 0.634666 134.481 0.544 134.769 0.544C135.057 0.544 135.286 0.634666 135.457 0.815999C135.638 0.986666 135.729 1.216 135.729 1.504C135.729 1.792 135.638 2.02667 135.457 2.208C135.286 2.37867 135.057 2.464 134.769 2.464ZM135.409 4V12H134.129V4H135.409ZM141.691 3.84C142.448 3.84 143.115 4.00533 143.691 4.336C144.277 4.66667 144.736 5.14667 145.067 5.776C145.397 6.39467 145.563 7.136 145.563 8C145.563 8.864 145.397 9.61067 145.067 10.24C144.736 10.8587 144.277 11.3333 143.691 11.664C143.115 11.9947 142.448 12.16 141.691 12.16C140.944 12.16 140.277 11.9947 139.691 11.664C139.104 11.3333 138.645 10.8587 138.315 10.24C137.984 9.61067 137.819 8.864 137.819 8C137.819 7.136 137.984 6.39467 138.315 5.776C138.645 5.14667 139.104 4.66667 139.691 4.336C140.277 4.00533 140.944 3.84 141.691 3.84ZM141.691 4.944C140.88 4.944 140.245 5.216 139.787 5.76C139.328 6.304 139.099 7.05067 139.099 8C139.099 8.94933 139.328 9.696 139.787 10.24C140.245 10.784 140.88 11.056 141.691 11.056C142.501 11.056 143.136 10.784 143.595 10.24C144.053 9.696 144.283 8.94933 144.283 8C144.283 7.05067 144.053 6.304 143.595 5.76C143.136 5.216 142.501 4.944 141.691 4.944ZM147.972 12V4H149.092L149.172 5.248C149.45 4.74667 149.828 4.38933 150.308 4.176C150.788 3.952 151.306 3.84 151.86 3.84C152.436 3.84 152.959 3.952 153.428 4.176C153.898 4.38933 154.271 4.72 154.548 5.168C154.836 5.616 154.98 6.18667 154.98 6.88V12H153.7V7.328C153.7 6.44267 153.508 5.82933 153.124 5.488C152.751 5.136 152.287 4.96 151.732 4.96C151.348 4.96 150.964 5.05067 150.58 5.232C150.196 5.41333 149.876 5.70667 149.62 6.112C149.375 6.51733 149.252 7.06133 149.252 7.744V12H147.972Z" fill="#213F7D"/>
</svg>
